HIERARCHY
ROOT Hips
{
    OFFSET 0.000000 0.000000 0.000000
    CHANNELS 6 Xposition Yposition Zposition Zrotation Xrotation Yrotation
    JOINT Spine
    {
        OFFSET -0.000000 8.267054 0.000000
        CHANNELS 3 Zrotation Xrotation Yrotation
        JOINT Spine1
        {
            OFFSET -0.000000 23.684998 0.000000
            CHANNELS 3 Zrotation Xrotation Yrotation
            JOINT Neck
            {
                OFFSET -0.000000 23.587730 2.144339
                CHANNELS 3 Zrotation Xrotation Yrotation
                JOINT Head
                {
                    OFFSET -0.000000 14.114483 -2.016355
                    CHANNELS 3 Zrotation Xrotation Yrotation
                    End Site
                    {
                        OFFSET -0.000000 25.204432 0.000000
                    }
                }
            }
            JOINT LeftShoulder
            {
                OFFSET 4.070090 22.062094 -0.247321
                CHANNELS 3 Zrotation Xrotation Yrotation
                JOINT LeftArm
                {
                    OFFSET 10.395479 0.000000 0.000000
                    CHANNELS 3 Zrotation Xrotation Yrotation
                    JOINT LeftForeArm
                    {
                        OFFSET 37.713577 0.000000 0.000000
                        CHANNELS 3 Zrotation Xrotation Yrotation
                        JOINT LeftHand
                        {
                            OFFSET 20.284107 0.000000 0.000000
                            CHANNELS 3 Zrotation Xrotation Yrotation
                            End Site
                            {
                                OFFSET 15.122660 0.000000 0.000000
                            }
                        }
                    }
                }
            }
            JOINT RightShoulder
            {
                OFFSET -3.979272 22.062094 -0.247321
                CHANNELS 3 Zrotation Xrotation Yrotation
                JOINT RightArm
                {
                    OFFSET -10.395479 0.000000 0.000000
                    CHANNELS 3 Zrotation Xrotation Yrotation
                    JOINT RightForeArm
                    {
                        OFFSET -37.713577 0.000000 0.000000
                        CHANNELS 3 Zrotation Xrotation Yrotation
                        JOINT RightHand
                        {
                            OFFSET -20.284107 0.000000 0.000000
                            CHANNELS 3 Zrotation Xrotation Yrotation
                            End Site
                            {
                                OFFSET -15.122660 0.000000 0.000000
                            }
                        }
                    }
                }
            }
        }
    }
    JOINT LeftUpLeg
    {
        OFFSET 10.081773 0.000000 0.000000
        CHANNELS 3 Zrotation Xrotation Yrotation
        JOINT LeftLeg
        {
            OFFSET -0.000000 -36.382099 0.000000
            CHANNELS 3 Zrotation Xrotation Yrotation
            JOINT LeftFoot
            {
                OFFSET -0.000000 -49.182560 0.000000
                CHANNELS 3 Zrotation Xrotation Yrotation
                JOINT LeftToeBase
                {
                    OFFSET -0.000000 -6.553152 15.122660
                    CHANNELS 3 Zrotation Xrotation Yrotation
                    End Site
                    {
                        OFFSET -0.000000 0.000000 4.032709
                    }
                }
            }
        }
    }
    JOINT RightUpLeg
    {
        OFFSET -10.081773 0.000000 0.000000
        CHANNELS 3 Zrotation Xrotation Yrotation
        JOINT RightLeg
        {
            OFFSET -0.000000 -36.382099 0.000000
            CHANNELS 3 Zrotation Xrotation Yrotation
            JOINT RightFoot
            {
                OFFSET -0.000000 -49.182560 0.000000
                CHANNELS 3 Zrotation Xrotation Yrotation
                JOINT RightToeBase
                {
                    OFFSET -0.000000 -6.553152 15.122660
                    CHANNELS 3 Zrotation Xrotation Yrotation
                    End Site
                    {
                        OFFSET -0.000000 0.000000 4.032709
                    }
                }
            }
        }
    }
}
MOTION
Frames:    7
Frame Time:    0.008333
24.070757    91.916039    -71.281273    8.228615    2.018508    0.413309    7.837306    -6.158444    -1.240587    4.885945    4.497388    -1.854754    4.273710    21.581444    -15.223384    3.096307    -0.239442    -15.185967    10.648622    10.616485    -6.255917    -69.890945    54.713802    -8.504130    2.237600    -12.502623    -24.764681    -0.810872    -12.036903    2.044182    -0.889982    1.824191    -2.707899    43.031120    20.402334    11.904875    -8.326701    -1.430225    16.071297    -38.865070    0.673344    -2.624774    -8.108345    -26.139109    -8.153262    -2.457223    50.142948    19.436739    2.712560    -2.209355    -6.032512    0.000000    0.000000    0.000000    -0.810752    -10.123606    -3.360554    2.852598    31.159603    -2.615504    -3.335417    -13.996208    -3.361672    0.000000    0.000000    0.000000    
24.091621    91.944054    -70.594536    8.269824    1.988514    -0.358457    7.922921    -6.138384    -1.006392    4.722651    4.464967    -1.616053    4.191987    21.616659    -15.122661    2.992365    -0.127163    -15.101302    10.642245    10.664893    -6.062225    -70.541183    54.828075    -7.858541    2.123343    -12.426107    -24.781029    -0.786817    -11.984110    2.051023    -0.895842    1.999045    -2.621073    43.218819    20.421183    11.841673    -8.228325    -1.445039    15.899759    -39.034466    0.618490    -2.574352    -8.372202    -26.559105    -8.449495    -2.144006    48.765152    18.669346    2.533184    -2.111418    -6.060217    0.000000    0.000000    0.000000    -0.746634    -9.588680    -2.766110    2.774049    30.913538    -2.275641    -3.277256    -13.954485    -3.503837    0.000000    0.000000    0.000000    
24.106895    91.969772    -69.897827    8.308357    1.955861    -1.128622    8.008738    -6.118744    -0.776076    4.559691    4.432874    -1.381313    4.111484    21.654190    -15.020617    2.880821    -0.017943    -15.015965    10.635071    10.712869    -5.870390    -71.199005    54.939316    -7.210761    2.019341    -12.352495    -24.801937    -0.794544    -11.932588    2.060485    -0.901758    2.172103    -2.527455    43.405785    20.448830    11.768559    -8.129250    -1.472992    15.728849    -39.217472    0.551461    -2.525187    -8.633845    -26.942179    -8.756161    -1.875831    47.299454    17.929197    2.278875    -1.977903    -6.116138    0.000000    0.000000    0.000000    -0.688265    -9.036891    -2.124947    2.710247    30.653439    -1.929335    -3.217996    -13.901129    -3.685707    0.000000    0.000000    0.000000    
24.116480    91.992210    -69.200882    8.344539    1.924104    -1.885540    8.093973    -6.104567    -0.552914    4.396238    4.404150    -1.154253    4.034064    21.692730    -14.918720    2.765279    0.085986    -14.930865    10.628474    10.759176    -5.682350    -71.852928    55.045666    -6.572639    1.926900    -12.281960    -24.824776    -0.832114    -11.882206    2.074269    -0.905989    2.340590    -2.431242    43.589237    20.484209    11.689531    -8.032743    -1.510724    15.566379    -39.406391    0.481846    -2.492901    -8.893630    -27.284782    -9.051806    -1.626223    45.774033    17.208914    1.962844    -1.817568    -6.187561    0.000000    0.000000    0.000000    -0.637918    -8.480019    -1.453184    2.657203    30.386425    -1.576843    -3.155663    -13.836425    -3.887031    0.000000    0.000000    0.000000    
24.120811    92.011131    -68.490219    8.379780    1.888614    -2.641492    8.181189    -6.094748    -0.333996    4.225021    4.382531    -0.931998    3.963474    21.734352    -14.814383    2.641059    0.180758    -14.843554    10.624439    10.803826    -5.493262    -72.512451    55.149479    -5.936513    1.843529    -12.214045    -24.846123    -0.895299    -11.833077    2.091028    -0.907843    2.507737    -2.330089    43.774117    20.524912    11.605025    -7.939090    -1.556340    15.412524    -39.602619    0.412771    -2.480091    -9.156038    -27.586817    -9.338619    -1.393500    44.164833    16.536291    1.599669    -1.626203    -6.272028    0.000000    0.000000    0.000000    -0.597143    -7.903214    -0.751247    2.610385    30.106007    -1.234877    -3.071568    -13.763061    -4.078065    0.000000    0.000000    0.000000    
24.119518    92.025284    -67.782913    8.412725    1.848577    -3.375029    8.268421    -6.092257    -0.126229    4.049640    4.373353    -0.721573    3.901735    21.775789    -14.710285    2.510740    0.266673    -14.756577    10.624246    10.845305    -5.308578    -73.160065    55.248749    -5.320473    1.771645    -12.153233    -24.864281    -0.977247    -11.789014    2.109338    -0.909055    2.667510    -2.224104    43.959339    20.566462    11.515821    -7.851723    -1.605121    15.266879    -39.800354    0.343444    -2.470824    -9.410542    -27.836498    -9.619481    -1.204652    42.515869    15.982068    1.219165    -1.413069    -6.361112    0.000000    0.000000    0.000000    -0.568209    -7.318954    -0.047498    2.570520    29.819048    -0.927200    -2.957180    -13.688241    -4.244421    0.000000    0.000000    0.000000    
24.111996    92.034470    -67.050537    8.442997    1.801225    -4.111771    8.359584    -6.099451    0.076925    3.863992    4.379963    -0.517058    3.841974    21.819799    -14.602990    2.373286    0.349022    -14.666827    10.627319    10.885839    -5.120448    -73.817101    55.344101    -4.702980    1.704340    -12.095135    -24.883183    -1.073983    -11.747025    2.131574    -0.911202    2.821704    -2.109363    44.155285    20.610655    11.417057    -7.768526    -1.657607    15.119792    -40.005711    0.268049    -2.452926    -9.662493    -28.041162    -9.917743    -1.065997    40.769619    15.560193    0.821415    -1.169904    -6.446353    0.000000    0.000000    0.000000    -0.549677    -6.702189    0.670345    2.532908    29.513996    -0.643663    -2.813041    -13.612641    -4.388344    0.000000    0.000000    0.000000    
